<svg width="242" height="233" viewBox="0 0 242 233" fill="none" xmlns="http://www.w3.org/2000/svg">
<path d="M42.0079 159.845L27.7944 185.933L28.9649 122.589C29.2323 118.565 30.5937 114.69 32.9029 111.38C33.8822 109.894 35.0296 108.525 36.3225 107.301C37.9947 105.892 40.227 104.107 41.7571 103.506C43.655 102.756 43.7135 100.129 41.9494 99.6699C40.1852 99.2112 34.9011 101.146 30.3027 105.85C25.7042 110.554 26.7409 100.387 27.0586 96.6758C27.3764 92.9643 27.8028 81.4548 26.7326 80.4874C25.1691 79.0612 23.3046 80.4874 23.0789 84.2238C22.8531 87.9602 21.4067 99.0277 19.4252 98.8192C17.4436 98.6107 19.3583 79.7451 19.3583 79.7451C19.3583 79.7451 20.4117 75.7585 18.1627 75.4415C14.0993 74.866 13.606 95.0327 13.606 96.9593C13.606 98.2938 11.474 98.1436 11.5492 96.7091C11.6245 95.2746 13.8401 77.9102 9.70983 77.293C6.54106 76.8177 9.14965 93.8818 6.69155 97.3096C4.23346 100.737 6.03941 84.132 2.98769 83.7984C1.85897 83.6733 0.989438 83.74 1.31551 93.3647C1.49945 98.544 3.82377 106.284 3.40573 116.275L3.3054 118.861C0.905828 137.551 -9.90478 235.607 27.3095 232.947C27.3095 232.947 55.5441 229.035 71.2375 177.776L42.0079 159.845Z" fill="#FFBE9D"/>
<path d="M10.1611 111.98C10.1611 112.072 10.7882 112.147 11.7163 112.63C12.9673 113.274 13.9439 114.346 14.467 115.65L14.7596 116.392L15.0857 115.666C15.5545 114.631 16.209 113.69 17.017 112.889C18.5738 111.309 20.5732 110.236 22.7526 109.811C24.4248 109.47 25.5117 109.661 25.5284 109.528C24.6141 109.192 23.6238 109.116 22.669 109.311C20.3235 109.615 18.1493 110.699 16.4987 112.389C15.6396 113.256 14.9531 114.277 14.4753 115.399H15.094C14.7943 114.691 14.357 114.048 13.8075 113.509C13.2579 112.969 12.6069 112.543 11.8918 112.255C11.3591 111.982 10.7527 111.885 10.1611 111.98Z" fill="#EB996E"/>
<path d="M211.75 172.03L227.56 201.738L242 229.444H209.351L189.117 187.851" fill="#FFBE9D"/>
<path d="M87.9172 229.444C91.0274 218.877 88.9873 217.209 85.643 206.717L78.4526 184.198L62.7175 207.384L29.2656 180.562L40.3605 155.6C61.0871 108.744 94.7062 112.072 94.7062 112.072L137.547 103.915C137.547 103.915 164.954 101.413 182.696 117.477C188.482 122.714 214.76 169.903 214.76 169.903L182.47 192.472L174.553 179.002L172.362 197.309C170.64 207.318 170.748 220.053 174.553 229.444" fill="#455A64"/>
<path d="M84.1886 128.019C84.1886 128.135 77.1404 129.687 68.4032 131.48C59.6661 133.273 52.5176 134.633 52.5176 134.516C52.5176 134.399 59.5574 132.848 68.3029 131.055C77.0484 129.261 84.1635 127.885 84.1886 128.019Z" fill="#FAFAFA"/>
<path d="M178.39 114.524C178.39 114.649 171.476 116.025 162.889 117.601C154.303 119.178 147.33 120.37 147.305 120.245C147.28 120.12 154.228 118.752 162.814 117.176C171.401 115.6 178.374 114.407 178.39 114.524Z" fill="#FAFAFA"/>
<path d="M191.592 129.778C191.592 129.895 180.832 132.28 167.504 135.174C154.177 138.068 143.358 140.262 143.333 140.178C143.308 140.095 154.085 137.676 167.412 134.782C180.74 131.888 191.533 129.686 191.592 129.778Z" fill="#FAFAFA"/>
<path d="M204.794 153.29L204.342 153.381L203.021 153.615L197.913 154.449L179.126 157.518L117.105 167.443C92.8584 171.271 70.9279 174.682 55.0255 177.068C47.0827 178.269 40.6448 179.203 36.1884 179.82C33.9644 180.12 32.2337 180.345 31.0549 180.47C30.4675 180.598 29.8636 180.632 29.2656 180.57C29.8635 180.561 30.4593 180.5 31.0465 180.387L36.1633 179.653L54.9837 176.767L117.038 167.009L179.051 157.209L197.863 154.274L202.979 153.498L204.317 153.306L204.794 153.29Z" fill="#FAFAFA"/>
<path d="M173.249 189.803C173.249 189.92 153.333 192.614 128.744 195.808C104.154 199.002 84.2052 201.496 84.1885 201.379C84.1718 201.263 104.096 198.577 128.693 195.374C153.291 192.172 173.198 189.686 173.249 189.803Z" fill="#FAFAFA"/>
<path d="M169.445 221.028C169.445 221.153 151.619 221.137 129.647 221.028C107.675 220.92 89.8408 220.695 89.8408 220.57C89.8408 220.445 107.658 220.461 129.647 220.57C151.636 220.678 169.445 220.912 169.445 221.028Z" fill="#FAFAFA"/>
<path d="M96.4378 147.318C96.2502 147.379 96.0569 147.421 95.8609 147.443L94.1887 147.718L88.0852 148.685C82.9266 149.519 75.8115 150.695 68.0191 152.155C60.2268 153.615 53.1201 155.074 48.0116 156.167L41.9332 157.459L40.261 157.801C40.0699 157.853 39.8737 157.884 39.6758 157.893C39.8562 157.816 40.0438 157.757 40.236 157.718L41.9332 157.293C43.3546 156.942 45.4113 156.459 47.953 155.866C53.0448 154.69 60.1014 153.189 67.9439 151.696C75.7864 150.203 82.9099 149.102 88.0769 148.36C90.6688 147.985 92.759 147.701 94.2138 147.526L95.8859 147.334C96.0689 147.311 96.2537 147.305 96.4378 147.318Z" fill="#FAFAFA"/>
<path d="M133.217 12.7312C132.189 25.0914 148.793 33.8654 147.314 46.1755C146.904 49.595 145.123 53.3148 146.937 56.2505C149.111 59.7785 154.404 59.0362 158.266 60.5624C163.024 62.439 165.457 68.1521 164.738 73.1979C164.019 78.2437 160.741 82.6057 156.887 85.9668C150.802 91.2735 143.196 94.5332 135.149 95.2828C131.42 95.6165 127.523 95.3496 124.196 93.6148C120.868 91.88 118.234 88.5356 118.218 84.7992" fill="#263238"/>
<path d="M134.855 111.004C132.648 100.454 130.516 89.3196 130.516 89.3196C130.516 89.3196 143.65 84.182 142.706 65.8752C141.811 48.4107 130.733 9.99561 130.733 9.99561C109.455 6.16745 87.3734 16.3759 76.7217 35.0163L96.0604 120.37C98.3011 130.278 108.602 136.217 119.245 133.773C129.972 131.221 136.953 121.054 134.855 111.004Z" fill="#FFBE9D"/>
<path d="M132.172 41.5302C132.301 42.1212 132.194 42.739 131.874 43.2528C131.554 43.7666 131.046 44.1359 130.458 44.2825C130.173 44.3673 129.874 44.3943 129.578 44.3618C129.283 44.3293 128.997 44.2381 128.737 44.0935C128.478 43.9488 128.25 43.7538 128.067 43.5198C127.884 43.2858 127.751 43.0176 127.674 42.7312C127.541 42.1447 127.641 41.5296 127.952 41.015C128.264 40.5003 128.763 40.126 129.346 39.9706C129.634 39.8806 129.937 39.8499 130.238 39.8802C130.538 39.9106 130.829 40.0014 131.093 40.1472C131.357 40.293 131.589 40.4907 131.775 40.7284C131.96 40.9662 132.095 41.2389 132.172 41.5302Z" fill="#263238"/>
<path d="M134.738 39.2367C134.521 39.5953 132.523 38.6862 130.073 39.2367C127.623 39.7872 126.085 41.3635 125.759 41.1216C125.6 41.0132 125.759 40.421 126.436 39.6871C127.331 38.7332 128.499 38.0778 129.78 37.8105C131.053 37.5361 132.379 37.6734 133.568 38.2025C134.454 38.5945 134.822 39.0782 134.738 39.2367Z" fill="#263238"/>
<path d="M107.147 47.2599C107.28 47.8464 107.18 48.4615 106.868 48.9761C106.557 49.4908 106.057 49.8651 105.475 50.0205C105.19 50.104 104.89 50.1298 104.595 50.0962C104.299 50.0627 104.013 49.9706 103.754 49.8253C103.495 49.68 103.267 49.4845 103.084 49.2502C102.902 49.0158 102.768 48.7475 102.691 48.4609C102.558 47.8755 102.659 47.2615 102.97 46.7482C103.282 46.2349 103.781 45.8623 104.363 45.7086C104.648 45.6238 104.947 45.5968 105.243 45.6293C105.538 45.6618 105.824 45.753 106.084 45.8976C106.343 46.0423 106.571 46.2373 106.754 46.4713C106.936 46.7053 107.07 46.9735 107.147 47.2599Z" fill="#263238"/>
<path d="M109.655 44.9415C109.438 45.2918 107.44 44.3827 104.99 44.9415C102.54 45.5003 101.01 47.0682 100.676 46.8264C100.517 46.7263 100.676 46.1258 101.353 45.3919C102.251 44.4426 103.418 43.7882 104.697 43.5153C105.973 43.2443 107.301 43.3815 108.493 43.9073C109.413 44.2993 109.789 44.7747 109.655 44.9415Z" fill="#263238"/>
<path d="M122.682 60.7462C122.64 60.6044 124.111 60.0206 126.511 59.1866C127.121 58.9864 127.69 58.7445 127.707 58.2941C127.612 57.6368 127.321 57.0232 126.87 56.5344L124.011 52.1724C119.998 45.9423 116.954 40.7713 117.214 40.6129C117.473 40.4544 120.918 45.3751 124.922 51.5969L127.715 56.0006C128.262 56.675 128.558 57.5182 128.551 58.3859C128.507 58.6247 128.409 58.8503 128.264 59.0455C128.119 59.2406 127.931 59.4001 127.715 59.5118C127.389 59.6797 127.044 59.8059 126.687 59.8871C124.262 60.546 122.723 60.8796 122.682 60.7462Z" fill="#263238"/>
<path d="M130.558 89.3194C122.236 91.2014 113.555 90.7482 105.476 88.01C105.476 88.01 113.836 98.9607 131.252 93.5479L130.558 89.3194Z" fill="#EB996E"/>
<path d="M122.899 66.8512C122.308 66.3649 121.603 66.0369 120.849 65.8983C120.096 65.7597 119.32 65.8149 118.594 66.0589C118.062 66.2191 117.569 66.4859 117.145 66.843C116.721 67.2002 116.375 67.64 116.127 68.1356C115.884 68.6108 115.794 69.1494 115.868 69.6777C115.943 70.2061 116.179 70.6986 116.545 71.088C117.028 71.4359 117.602 71.6341 118.197 71.6579C118.792 71.6816 119.381 71.5298 119.89 71.2215C120.959 70.5752 121.891 69.725 122.632 68.7194C122.861 68.4759 123.045 68.1935 123.175 67.8854C123.238 67.73 123.253 67.5594 123.217 67.3958C123.181 67.2322 123.097 67.0831 122.975 66.9679" fill="#FF725E"/>
<path d="M115.826 63.9568C116.227 63.8484 116.796 66.5006 119.471 67.9101C122.147 69.3196 124.914 68.4189 125.015 68.7441C125.09 68.9026 124.496 69.3947 123.301 69.6782C121.747 70.0315 120.118 69.8247 118.702 69.0944C117.344 68.3991 116.312 67.202 115.826 65.7583C115.508 64.6991 115.642 63.9819 115.826 63.9568Z" fill="#263238"/>
<path d="M87.399 53.1231C85.408 53.1188 83.4547 53.6644 81.7554 54.6994C80.0644 55.7528 78.8616 57.4326 78.4111 59.3699C78.0583 61.3379 78.4709 63.3661 79.5649 65.0413C80.6575 66.7001 82.1088 68.0937 83.8122 69.1196C84.98 69.9407 86.3271 70.4724 87.7418 70.6709C88.45 70.7655 89.1706 70.6832 89.8389 70.4314C90.5073 70.1795 91.1025 69.766 91.5711 69.2281" fill="#FFBE9D"/>
<path d="M88.7532 64.8329C88.9873 64.8329 88.402 66.1757 86.571 66.0756C85.5799 65.9522 84.6781 65.4424 84.0627 64.6577C83.3355 63.7921 82.7871 62.7915 82.4491 61.7136C82.0593 60.5725 82.0919 59.3299 82.541 58.2107C82.7271 57.7338 83.0207 57.3059 83.3991 56.9602C83.7775 56.6146 84.2306 56.3604 84.7232 56.2174C86.5041 55.8004 87.3151 56.918 87.1228 56.9931C86.9305 57.0681 86.178 56.6761 85.0744 57.2016C83.9708 57.727 83.2183 59.4201 83.8704 61.2799C84.5226 63.1398 85.6262 64.8079 86.7633 65.033C87.9004 65.2582 88.6361 64.6994 88.7532 64.8329Z" fill="#EB996E"/>
<path d="M125.541 6.08418C126.833 8.6185 127.267 11.5018 126.778 14.3027C126.29 17.1036 124.906 19.6714 122.832 21.622C118.585 25.4335 112.431 25.9756 106.947 27.5686C101.462 29.1616 95.5843 33.1899 95.8352 38.8863C95.9856 42.3392 98.4437 45.6586 97.5575 48.9947C96.5291 52.9062 91.5209 54.5743 90.1079 58.3608C87.8421 64.4491 96.1361 69.9287 95.7683 76.409C95.5509 80.2539 92.2901 83.3898 91.9306 87.2513C91.4122 92.7058 96.7799 98.5023 93.7951 103.098C91.5042 106.634 86.17 106.125 82.2571 104.591C78.3442 103.056 74.0634 100.871 70.1422 102.406C67.7844 103.323 66.1206 105.425 64.022 106.843C62.1056 108.14 59.8464 108.841 57.5303 108.857C55.2142 108.874 52.9454 108.204 51.0109 106.933C49.0765 105.663 47.5635 103.848 46.6633 101.719C45.7632 99.5905 45.5164 97.2432 45.9542 94.9744C46.5896 91.6383 48.6129 88.7776 50.2433 85.8001C51.8737 82.8227 53.1696 79.3448 52.1914 76.1004C51.4305 73.5984 49.4741 71.7135 47.919 69.6284C46.3639 67.5434 45.1515 64.7994 46.1548 62.4058C47.9106 58.194 54.6411 58.5609 57.0825 54.7077C60.4269 49.4117 52.668 42.6728 54.6578 36.7345C56.9153 30.0123 68.8713 31.2133 71.1455 24.4911C71.9816 22.0474 71.1455 19.3535 71.3712 16.7847C71.9649 10.9465 78.1435 7.15173 83.9711 6.14256C89.7986 5.13339 95.8853 5.88401 101.604 4.38277C104.731 3.54875 107.657 2.07252 110.734 1.04667C113.811 0.0208259 117.222 -0.487933 120.266 0.637999C123.309 1.76393 125.742 4.94156 125.132 8.14421" fill="#263238"/>
<path d="M122.907 18.611C124.6 21.532 126.94 24.0278 129.748 25.9072C132.557 27.7865 135.76 28.9995 139.111 29.4533C139.002 24.983 138.768 20.4792 137.556 16.184C136.343 11.8888 134.069 7.72701 130.558 4.99975C127.046 2.27249 122.08 1.13822 117.916 2.76457" fill="#263238"/>
<path d="M144.437 104.34C145.951 104.541 154.412 154.048 121.93 159.544C91.187 164.757 81.6807 113.89 81.6807 113.89C81.6807 113.89 102.391 98.7358 144.437 104.34Z" fill="#FFBE9D"/>
<path d="M125.826 36.5596C126.018 36.9182 127.69 36.3845 129.772 36.1509C131.854 35.9174 133.593 36.0342 133.693 35.6422C133.794 35.2502 132.021 34.4495 129.605 34.7331C127.188 35.0167 125.633 36.276 125.826 36.5596Z" fill="#263238"/>
<path d="M101.003 40.3959C101.078 40.3292 101.07 40.1874 101.003 39.9622V40.3376C102.203 39.729 103.472 39.2643 104.782 38.9531C107.089 38.4527 109.046 39.0031 109.205 38.6278C109.272 38.4527 108.853 38.0607 108.001 37.7938C106.873 37.4107 105.662 37.3415 104.497 37.5936C103.727 37.711 102.989 37.9838 102.327 38.3953C101.666 38.8069 101.096 39.3485 100.651 39.9873L100.501 40.2875L100.626 40.3542C100.794 40.446 100.936 40.446 101.003 40.3959Z" fill="#263238"/>
<path d="M86.9727 38.953C85.0768 38.9761 83.1818 38.8563 81.304 38.5944C79.4132 38.4787 77.5345 38.2138 75.6855 37.8021C77.5815 37.7792 79.4764 37.899 81.3542 38.1607C83.2444 38.283 85.1226 38.5479 86.9727 38.953Z" fill="#FF725E"/>
<path d="M84.2131 42.114C82.8051 42.42 81.357 42.4989 79.924 42.3475C78.4857 42.344 77.0574 42.1102 75.6934 41.6553C75.6934 41.5385 77.608 41.7887 79.949 41.9138C82.2901 42.0389 84.2047 41.9805 84.2131 42.114Z" fill="#FF725E"/>
<path d="M125.817 16.1843C125.784 16.363 125.727 16.5368 125.65 16.7014C125.446 17.1835 125.163 17.6287 124.814 18.0192C123.418 19.3786 121.578 20.19 119.63 20.3044C118.309 20.4518 116.974 20.4293 115.659 20.2377C114.246 20.0625 112.749 19.804 111.177 19.6872C109.545 19.502 107.891 19.6815 106.336 20.2127C104.718 20.9094 103.32 22.0306 102.29 23.457C101.144 24.8748 100.183 26.3928 99.054 27.7356C98.4977 28.3991 97.879 29.0079 97.2063 29.5537C96.5453 30.0631 95.82 30.4837 95.0492 30.8048C93.6205 31.3347 92.1413 31.7175 90.6346 31.9474C89.3435 32.1445 88.071 32.4486 86.8304 32.8565C85.0328 33.4193 83.4946 34.6019 82.4912 36.1925C82.1813 36.8074 81.9912 37.4753 81.931 38.1608C81.9071 37.9809 81.9071 37.7986 81.931 37.6187C81.9839 37.0973 82.1283 36.5892 82.3574 36.1175C83.325 34.4227 84.8847 33.143 86.7385 32.5228C87.9908 32.0908 89.2774 31.7644 90.5845 31.547C92.0617 31.311 93.5103 30.9225 94.907 30.3877C96.4154 29.7343 97.735 28.7134 98.7447 27.4186C99.8483 26.1092 100.801 24.5829 101.964 23.1401C103.052 21.6701 104.516 20.5181 106.203 19.804C107.815 19.2597 109.529 19.0802 111.219 19.2786C114.421 19.5621 117.222 20.3211 119.58 19.9958C121.48 19.9314 123.295 19.1987 124.705 17.9274C125.164 17.4075 125.54 16.8194 125.817 16.1843Z" fill="#455A64"/>
<path d="M56.0456 107.602C56.298 107.549 56.5465 107.479 56.7897 107.393C57.4633 107.085 57.995 106.533 58.2779 105.85C58.7424 104.771 58.7664 103.553 58.3448 102.456C57.9435 101.155 57.1659 99.7701 56.5723 98.1188C55.0468 94.27 54.6326 90.072 55.3767 86.0004C55.8852 83.6044 56.9314 81.3546 58.4368 79.42C59.2447 78.4048 60.1902 77.5066 61.2461 76.7511C62.3447 76.0037 63.5292 75.3904 64.7743 74.9246C65.9922 74.4911 67.1242 73.8474 68.1187 73.023C68.5599 72.6034 68.9038 72.0925 69.1262 71.5263C69.3486 70.9601 69.4442 70.3522 69.4063 69.7453C69.2641 67.3183 67.9348 65.0914 67.9766 62.6895C67.9997 61.5226 68.3036 60.3785 68.8628 59.3534C69.3819 58.4119 70.0228 57.5427 70.7691 56.7679C72.1165 55.4154 73.5522 54.1533 75.0666 52.9898C77.7421 50.7879 79.4059 48.3943 79.849 46.5094C80.0766 45.5327 80.0766 44.517 79.849 43.5403C79.8818 43.6001 79.9044 43.6649 79.9159 43.7321C79.9159 43.8572 80.0079 44.049 80.058 44.2992C80.1798 45.0476 80.1542 45.8125 79.9828 46.5511C79.6965 47.716 79.1822 48.8129 78.4695 49.7788C77.5388 51.0541 76.4549 52.2109 75.2422 53.2233C73.7532 54.3951 72.3402 55.6598 71.0116 57.0098C70.2935 57.7618 69.6754 58.6027 69.1722 59.5118C68.6495 60.4768 68.363 61.5513 68.3361 62.6478C68.3788 63.8078 68.5958 64.9548 68.9799 66.0506C69.4004 67.2258 69.681 68.4463 69.8159 69.6869C69.8601 70.3554 69.7565 71.0254 69.5123 71.6494C69.2681 72.2735 68.8894 72.8364 68.403 73.2982C67.3737 74.1601 66.1987 74.8322 64.9332 75.2832C63.7184 75.7661 62.5649 76.3904 61.4969 77.1431C60.4728 77.875 59.5555 78.7451 58.7712 79.7286C57.301 81.6085 56.275 83.7951 55.7697 86.1255C55.0274 90.1252 55.4034 94.2515 56.8566 98.0521C57.4251 99.7201 58.186 101.08 58.5789 102.431C58.7693 103.058 58.8596 103.711 58.8465 104.366C58.8209 104.922 58.6815 105.467 58.4368 105.967C58.1199 106.672 57.5416 107.228 56.8231 107.518C56.5742 107.607 56.3077 107.636 56.0456 107.602Z" fill="#455A64"/>
</svg>
